<?xml version="1.0" encoding="utf-8"?>
<!-- Generator: Adobe Illustrator 24.3.0, SVG Export Plug-In . SVG Version: 6.00 Build 0)  -->
<svg version="1.1" id="Laag_1" xmlns="http://www.w3.org/2000/svg" xmlns:xlink="http://www.w3.org/1999/xlink" x="0px" y="0px"
	 viewBox="0 0 8739.5 2737.1" style="enable-background:new 0 0 8739.5 2737.1;" xml:space="preserve">
<style type="text/css">
	.st0{fill-rule:evenodd;clip-rule:evenodd;fill:#008BD2;}
	.st1{fill-rule:evenodd;clip-rule:evenodd;fill:#BCE4FA;}
	.st2{fill-rule:evenodd;clip-rule:evenodd;fill:#FFFFFF;}
	.st3{clip-path:url(#SVGID_3_);}
</style>
<g>
	<polygon class="st0" points="6699,940.2 6621.2,1306.8 6323.6,1306.8 6181.1,2032.3 114.2,2032.3 114.2,1664.3 5830.2,1664.3 
		5972.5,940.2 6699,940.2 	"/>
	<polygon class="st1" points="114.2,1664.3 114.2,1306.8 6621.2,1306.8 6579.1,1504.6 6708.3,1664.3 114.2,1664.3 	"/>
	<path class="st0" d="M2343.6,1736.2l32-139.5h208.6l47.7-222.8h249.9l-37,164.4c5.7-11.4,12.1-22.1,18.5-33.5
		c44.8-76.9,129.6-132.4,220.7-130.3c61.2-1.4,123.2,27.8,157.3,79c5,7.1,9.3,15,13.6,22.8c10-13.5,21.3-26.3,33.4-37
		c20-19.9,43.5-34.9,68.4-47c22.7-10.6,47.7-18.4,73.3-22.7l37.7-3.6c47,0,93.2,14.2,128.1,42.6c5,3.7,9.3,7.2,13.6,11.5l9.2-46.3
		h243.5l-4.9,22c33.4-17.1,70.4-27,108.2-27.7c20.6,0,40.6,2.8,59.1,7.8c8.6,2.1,16.4,5,24.9,7.8l2.2-9.9h288.3h107.5h135.3
		l-12.9,66.2c51.3-42,117.5-66.9,186.5-66.2l26.4,1.4c12.8,1.4,25.6,3.5,37,6.5l52.7,12.8c32.7-16.4,69.1-25.7,106.1-26.3
		c20.7,0,40.6,2.8,59.8,8.5c19.9,5,38.4,12.8,55.5,22.8l44.2,26.3l-54.8,256.3c0.7,0.7,0.7,2.1,1.4,3.5c6.4,17.9,9.2,37.1,9.2,57
		v8.6v7.1l-1.4,9.9l-0.7,6.5l-0.7,2.9c-9.3,63.4-37,121-83.3,159.5c-41.3,35.6-92.6,59.1-148.8,63.3h-12.1c-21.3,0-42.7-2.8-62-8.5
		c-10-2.9-20.6-6.4-30.6-11.4l-37.1,9.2c-10,2.9-19.9,4.4-34.2,6.5l-31.3,2.1c-61.9,0.7-120.3-24.2-163.1-66.2
		c-5.7-5-11.4-10.7-15.7-16.4l-15.6,76.2h-222.8h-19.9h-227.8l13.5-59.1c-1.5,1.4-3.5,2.9-5.1,4.3c-41.9,34.9-92.5,59.1-148.7,63.3
		h-12.8c-21.3,0-43.4-2.8-61.2-8.5c-11.4-2.9-22.8-7.1-34.9-12.8l-2.1,12.8H3492l7.1-34.9c-40.5,26.3-89.7,40.6-139.5,39.9
		c-66.2,2.2-133.2-32-164.5-91.8c-2.1-4.3-4.2-7.8-5.7-12c-47.7,66.1-127.4,109.6-210,108.9c-54.1-2.1-90.5-12.8-128.9-44.8
		l-8.6,34.9h-343.2l18.5-86.1l17.8-82.6h-211.4L2343.6,1736.2L2343.6,1736.2z M4727.9,1748.3l17.1-80.4l10,9.9
		c-8.5-21.3-12.8-44.1-12.1-67.6v-8.6c-14.3,1.5-29.2,11.4-39.9,23.6c-17.8,19.9-31.3,43.4-36.3,70.5l-0.7,2.1l-0.7,13.6l-0.8,7.1
		l-0.7,12.8c0.7,10.7,0.7,20.6,4.3,31.3c2.1,2.2,4.3,5,7.1,5.6h1.4v0.8l13.6-1.5L4727.9,1748.3L4727.9,1748.3z M5116.6,1904.9
		l126.8-560.3h244.2l-42.7,182.3c27.8,6.4,52,22.1,69.1,44.1c2.1,2.9,4.2,5.7,7.1,9.9l2.8,4.3c17.1,28.4,23.5,60.5,22.8,93.2v11.4
		v8.6l-1.4,8.5c-0.7,10-1.5,20.7-3.6,30.6h12.1l15.7,0.7c19.2,2.9,36.3,8.5,51.9,17.8l-19.9-223.6H6085l-110.4,205.8h9.2
		c22.8,3.5,43.4,11.3,61.2,24.2c29.9,20.6,45.5,56.3,44.8,92.6v5.6c-0.7,10.7-2.1,19.2-4.2,27.8c-7.2,27.8-23.5,53.4-44.9,70.4
		c-22.8,20-52,32.8-79,35.7l-1.4,0.7l-4.2,2.2h-12.9h-5.7h-2.9c-29.2,0-57.7-9.3-79-25.7c-1.5-1.4-3.6-2.8-5-4.3l-13.5,24.2h-195.1
		l-3.6-43.4c-4.2,3.6-8.6,7.1-12.1,10.6c-22.7,20-51.9,32.8-79,35.7l-1.4,0.7l-4.3,2.2h-12.8h-5.7h-2.9c-29.2,0-57.7-9.3-79.1-25.7
		c-3.5-2.8-7.1-5.7-10.6-9.2c-5,4.2-10,7.8-15.7,10.7c-5,3.5-12,7.8-19.2,10.7c-4.9,2.1-10,3.5-14.9,5.6l-5,1.4l-9.9,1.4l-22.9,2.2
		c-10.6,0.7-21.3-0.7-31.2-2.9h-215L5116.6,1904.9L5116.6,1904.9z"/>
	<polygon class="st2" points="2412.6,1751.8 2431.9,1667.9 2595.6,1667.9 2576.5,1751.8 2412.6,1751.8 	"/>
	<polygon class="st2" points="2587.1,1920.5 2689.6,1445 2792.1,1445 2703.8,1836.6 2807.1,1836.6 2786.4,1920.5 2587.1,1920.5 	"/>
	<path class="st2" d="M2857.6,1756.8c4.3-78.4,26.4-150.2,66.2-214.3c39.9-64.8,93.2-96.9,160.2-96.9c44.1,0,76.9,16.4,99,48.4
		c22,32.1,32.8,73.3,29.9,123.8c0,1.5,0,2.9,0,3.6c0,1.4,0,2.9,0,4.3c-0.7,1.4-1.4,2.8-1.4,4.2c0,1.5,0,2.2,0,3.6
		c-10,84-34.9,155.2-75.5,211.4c-40.5,57-94,85.4-160.2,85.4c-43.4,0-74.8-15.6-94-47c-19.2-32.1-27.1-74-24.2-126V1756.8
		L2857.6,1756.8z M2960.9,1732.6c-0.7,6.4-0.7,12.8-1.4,19.2c0,6.4,0,12.9,0,20c0,18.5,2.8,35.6,7.8,51.9
		c5.8,15.7,16.4,23.6,33.5,23.6c27.8,0,52-22.1,71.2-64.9c19.2-42.7,32-93.9,37.7-153.8c2.2-34.9,0-59-5.7-72.7
		c-5.6-14.2-17.1-21.3-34.9-21.3c-25.6,0-45.5,14.3-61.2,42c-15.6,27.8-27.8,58.4-35.5,92.5c-2.8,10.7-5,21.3-6.5,32.8
		c-2.1,10.6-3.6,21.4-5,31.3V1732.6L2960.9,1732.6z"/>
	<path class="st2" d="M3467.1,1742.6h-66.2l19.9-89h158.1c-11.4,81.9-34.9,147.3-70.5,197.2c-34.9,49.9-84.7,74.8-148.7,74.8
		c-47.8,0-81.9-18.5-101.9-54.8c-20-37-28.5-79.7-25.6-129.5c0.7-9.2,1.5-19.2,2.2-29.3c1.4-9.9,2.8-20.7,5.7-31.3
		c7.1-35.6,19.9-70.5,36.3-104.6c17.2-34.2,37.1-62.7,61.2-85.5c15-14.3,31.4-24.9,49.9-33.5c17.8-8.6,34.9-14.3,53.3-17.1
		c4.3-0.7,9.3-1.5,14.3-2.2c5,0,9.3-0.7,14.2-0.7c32.1,0,59.8,9.3,83.3,27.8c24.2,18.5,36.3,47,37,84.7l-98.2,34.1
		c0.7-18.5-2.1-32.7-9.9-43.4c-7.8-9.9-16.4-15-25.7-15.6c-0.7,0-0.7,0-1.4,0c0,0,0,0-0.7,0c-0.7,0-0.7,0-1.4,0c0,0,0,0-0.8,0
		c-25.6,0-47.7,16.3-66.9,49.8c-19.9,33.5-33.5,70.6-41.3,111c-1.4,7.9-2.9,16.5-4.2,25c-0.7,8.4-1.5,17.1-2.2,24.9
		c-1.4,29.9,1.5,54.8,9.3,75.5c7.1,20.6,20,31.3,39.2,31.3c17,0,32.8-8.5,45.6-24.2c13.6-15.7,23.5-33.5,30.6-52.7
		c1.4-3.5,2.9-7.8,3.6-11.4c0.7-3.5,1.4-7.1,2.2-10.7V1742.6L3467.1,1742.6z"/>
	<polygon class="st2" points="3579.5,1920.5 3677.1,1445 3774.7,1445 3677.1,1920.5 3579.5,1920.5 	"/>
	<path class="st2" d="M3775.3,1811.6c6.4,6.5,13.6,11.4,20.6,15c7.1,4.3,14.2,7.1,21.4,9.2c3.5,0.8,7.8,1.4,11.3,1.4
		c4.3,0.7,7.9,0.7,11.4,0.7c17.1,0,32-4.2,45.6-14.2c13.5-9.2,21.3-22.8,24.2-40.6c0-0.7,0-1.4,0-1.4v-0.7c0,0,0,0,0-0.7
		c0,0,0,0,0-0.7c0.7-7.8-1.5-14.9-5.7-22.1c-4.3-7.1-10-13.5-16.4-19.9c-5-5-10.6-9.3-16.3-13.5c-5-4.3-10.7-9.2-17.1-14.3
		c-13.6-12.1-26.4-26.2-37.8-43.4c-11.3-17-16.4-38.4-14.9-64.1c0-2.1,0-4.2,0-6.4c0-2.9,0.7-5,0.7-7.1c7.1-47,25.6-84,58.4-109.7
		c32-26.3,66.9-39.1,105.4-39.9c13.5,0,27.1,2.1,40.6,5.7c13.6,3.5,25.7,8.5,37.7,15.6l-19.9,93.3c-5.7-7.8-13.5-15-22.8-19.9
		c-8.5-5-17.8-8.6-27.8-9.9c-2.2-0.7-4.3-0.7-6.5-1.5c-2.1,0-3.5,0-5.6,0c-13.6,0-25.7,3.6-36.3,11.5c-10.7,7.8-17.1,19.9-19.2,35.6
		c0,0.7,0,0.7,0,1.4c0,0,0,0.7,0,1.5v0.7c0,0.7,0,1.4,0,1.4c-1.4,16.4,2.8,29.9,11.4,40.7c8.5,10.6,18.5,20.6,29.2,29.9
		c2.1,1.4,4.2,3.5,6.4,5c1.4,1.4,3.5,2.9,4.9,3.5c13.5,11.4,25.7,23.5,37,37.7c10.8,14.3,15.7,33.5,14.3,58.4c0,1.5,0,2.2,0,3.6
		c0,1.4,0,3.6-0.7,5c0,0.7,0,1.5,0,2.2c-0.7,0.7-0.7,1.4-0.7,2.1c-6.4,52-26.4,91.8-59.1,120.3c-33.4,27.8-68.3,43.5-105.3,46.3
		c-2.2,0-3.6,0-4.9,0c-2.2,0-3.6,0-5,0c-14.3,0-28.4-1.4-41.3-5.6c-13.5-3.6-26.3-9.3-37.7-17.2L3775.3,1811.6L3775.3,1811.6z"/>
	<polygon class="st2" points="4076.5,1920.5 4164,1534.7 4087.1,1534.7 4107.8,1445 4358.4,1445 4337.8,1534.7 4266.6,1534.7 
		4178.3,1920.5 4076.5,1920.5 	"/>
	<polygon class="st2" points="4301.4,1920.5 4398.3,1445 4495.8,1445 4399,1920.5 4301.4,1920.5 	"/>
	<path class="st2" d="M4700.2,1920.5c-8.6,2.2-16.4,3.6-24.9,5c-8.5,0.7-17.1,1.4-25.7,1.4c-42.7,0-79.7-15.7-112.4-46.3
		c-32-30.6-47.7-83.3-45.6-157.3c0-7.9,1.4-15.7,2.1-23.5c0.7-7.1,2.9-15.7,5-23.6c13.6-57.5,44.2-111,91.8-158.7
		c47-48.4,101.8-72.6,163.8-72.6c7.8,0,15.7,0.7,23.5,1.4c8.6,0.7,16.4,2.1,24.9,4.3l-19.9,84c-5.7-1.4-10.7-2.1-15.7-2.9
		c-5.7-0.7-10.7-1.4-15.7-1.4c-39.2,0-72.6,15.7-101.1,46.9c-29.2,32.1-46.3,66.2-53.4,103.9c-0.7,2.2-0.7,4.2-1.4,6.4
		c0,1.5,0,3.5,0,5.7c-1.4,3.6-1.4,7.9-1.4,11.4c-0.7,2.9-0.7,6.4-0.7,10c-2.2,44.1,4.3,75.5,20,93.2c15.6,18.6,33.4,28.6,52.7,31.4
		c2.1,0,4.2,0,6.4,0c2.1,0.7,4.2,0.7,6.4,0.7c7.8,0,15,0,22.8-2.2c7.2-1.4,13.5-3.5,19.2-6.4L4700.2,1920.5L4700.2,1920.5z"/>
	<path class="st2" d="M4787.7,1811.6c6.4,6.5,13.6,11.4,20.7,15c7.1,4.3,14.9,7.1,22.1,9.2c3.5,0.8,7.9,1.4,11.4,1.4
		c3.5,0.7,7.8,0.7,10.6,0.7c17.8,0,32.8-4.2,46.4-14.2c13.5-9.2,21.3-22.8,24.1-40.6c0-0.7,0-1.4,0-1.4v-0.7c0,0,0,0,0-0.7
		c0,0,0,0,0-0.7c0.8-7.8-1.4-14.9-5.6-22.1c-4.3-7.1-10-13.5-17.1-19.9c-4.3-5-10-9.3-15.7-13.5c-5.7-4.3-11.4-9.2-17.1-14.3
		c-14.2-12.1-27-26.2-38.4-43.4c-11.4-17-16.4-38.4-15-64.1c0-2.1,0.7-4.2,0.7-6.4c0-2.9,0-5,0.7-7.1c6.4-47,25.7-84,57.7-109.7
		c32.7-26.3,67.6-39.1,106.1-39.9c13.5,0,27.1,2.1,40.6,5.7c12.8,3.5,25.6,8.5,37.7,15.6l-19.9,93.3c-5.8-7.8-13.6-15-22.9-19.9
		c-8.5-5-18.5-8.6-27.7-9.9c-2.1-0.7-4.2-0.7-6.4-1.5c-2.2,0-4.2,0-6.4,0c-13.5,0-25.6,3.6-35.6,11.5c-10.7,7.8-17,19.9-19.2,35.6
		c0,0.7,0,0.7,0,1.4c0,0,0,0.7,0,1.5v0.7c-0.7,0.7-0.7,1.4-0.7,1.4c-0.7,16.4,2.9,29.9,11.4,40.7c9.2,10.6,18.5,20.6,29.8,29.9
		c2.2,1.4,4.3,3.5,5.7,5c2.2,1.4,4.3,2.9,5.8,3.5c12.8,11.4,25.6,23.5,36.3,37.7c11.4,14.3,16.4,33.5,14.9,58.4c0,1.5,0,2.2,0,3.6
		c-0.7,1.4-0.7,3.6-0.7,5c0,0.7,0,1.5-0.8,2.2c0,0.7,0,1.4,0,2.1c-6.4,52-26.3,91.8-59.8,120.3c-32.8,27.8-67.7,43.5-105.3,46.3
		c-1.5,0-2.9,0-4.3,0c-2.1,0-3.6,0-5,0c-14.3,0-28.5-1.4-42-5.6c-13.5-3.6-25.6-9.3-37-17.2L4787.7,1811.6L4787.7,1811.6z"/>
	<path class="st2" d="M5186.4,1920.5l113.9-504.7h97.5l-52.7,222.1c2.1-2.1,4.3-4.3,6.4-6.4c2.2-2.2,4.3-4.3,6.4-6.4
		c10.6-10.8,21.3-18.5,30.6-23.6c10.7-4.3,20-7.1,29.2-7.1c17.8,0,32.1,7.7,43.5,24.9c11.3,17,15.7,39.9,14.2,69.1c0,1.4,0,3.6,0,5
		c0,1.5-0.7,2.9-0.7,5.1c-5.7,61.9-18.5,109.5-37.7,144.5c-18.5,34.2-39.2,58.4-59.9,70.5c-6.4,4.2-12.8,6.4-19.2,8.5
		c-6.4,1.5-12.8,2.2-18.5,2.2c-13.5,0-24.9-4.3-34.2-13.6c-9.2-9.2-13.6-22.1-13.6-39.2l-13.5,49.1H5186.4L5186.4,1920.5z
		 M5358.7,1672.8c-11.4,0-22.1,9.3-31.3,27.8c-9.3,17.8-16.4,37.8-20.7,59.9c-1.4,5-2.1,10.7-2.9,16.3c-0.7,5.7-1.4,11.4-1.4,16.4
		c-0.7,14.9,0.7,27.8,3.5,38.4c3.6,10,9.2,15.7,17.8,15.7c8.5,0,17.1-9.3,25.6-27.8c9.3-18.6,15.6-37.8,20-59.1
		c2.1-7.2,3.5-14.3,4.3-21.4c1.4-7,2.1-13.6,2.1-20c0.7-12.8,0-23.4-2.9-32.7c-2.1-8.6-7.1-12.8-14.2-12.8V1672.8L5358.7,1672.8z"/>
	<path class="st2" d="M5469.8,1875.7c1.4-19.2,9.2-34.2,23.5-46.3c14.3-11.4,29.9-17.8,46.3-19.9c2.2,0,3.5,0,5.7-0.7
		c2.1,0,4.2,0,5.6,0c14.3,0,27.1,3.5,38.4,11.3c10.7,7.8,15.7,20,15,37c-1.4,19.2-9.3,35.7-23.6,47c-14.2,12.1-29.1,18.5-46.3,20.6
		c-2.1,0.7-4.2,0.7-5.6,1.5c-2.2,0-4.3,0-6.5,0c-14.9,0.7-27.8-3.6-37.7-11.4c-10.6-7.8-15.7-20.7-14.9-38.4V1875.7L5469.8,1875.7z"
		/>
	<polygon class="st2" points="5707.6,1920.5 5679.8,1603.7 5776.6,1603.7 5782.3,1786.7 5863.5,1603.7 5966,1603.7 5795.1,1920.5 
		5707.6,1920.5 	"/>
	<path class="st2" d="M5884.1,1875.7c1.5-19.2,9.2-34.2,23.5-46.3c14.2-11.4,29.9-17.8,46.3-19.9c2.2,0,3.6,0,5.7-0.7
		c2.1,0,4.2,0,5.7,0c14.2,0,27,3.5,38.4,11.3c10.7,7.8,15.7,20,14.9,37c-1.4,19.2-9.2,35.7-23.5,47c-14.2,12.1-29.2,18.5-46.3,20.6
		c-2.1,0.7-4.2,0.7-5.7,1.5c-2.1,0-4.3,0-6.4,0c-15,0.7-27.8-3.6-37.7-11.4c-10.7-7.8-15.7-20.7-15-38.4V1875.7L5884.1,1875.7z"/>
	<path class="st0" d="M265.4,2349.9l323.2-1812h531.2l-272,1442.4h387.3l257.8-1442.4H1957c148.8,1.4,312.6,32.8,412.2,151
		c76.9,87.6,124,203.6,123.2,323.2l-0.7,18.5v5l-1.4,16.4l-1.4,8.6c-8.5,102.5-47,205.7-106.8,294.7c-30.6,46.3-69,88.3-113.9,121
		c19.2,21.4,35.7,44.8,48.4,69.8c42,76.9,59.8,165.2,59.8,253.5v9.9c0,19.2-0.8,39.2-3.6,59.8c-2.1,19.2-5.6,38.4-9.2,57.7
		c-27,136.7-108.9,255.5-210.7,347.4c-142.4,127.5-342.5,159.5-528.3,159.5H250.5L265.4,2349.9L265.4,2349.9z M1751.9,2006.7
		c19.9-8.6,39.2-21.4,54.1-37.7c34.9-37.1,63.4-81.2,74-132.5l1.5-2.9c0-2.2,0.7-5.1,0.7-7.1l0.7-5.6l1.3-21.4
		c0-31.4-9.2-65.6-30.5-91.8c-12.1-14.3-28.5-23.5-45.6-29.2L1751.9,2006.7L1751.9,2006.7z M1876.6,1254.8
		c13.5-7.1,24.9-17,34.9-29.1c29.2-33.5,51.2-73.3,61.2-116.8l2.2-33.4c0-29.2-7.9-61.9-29.2-87.6c-7.9-10-17.8-16.4-29.2-21.4
		L1876.6,1254.8L1876.6,1254.8z"/>
	<polygon class="st2" points="335.2,2362.7 647.7,609.1 1034.3,609.1 762.4,2051.6 1148.2,2051.6 1085.6,2362.7 335.2,2362.7 	"/>
	<path class="st2" d="M1238.6,2362.7l313.2-1753.6H1957c170.1,2.2,289,43.4,358.2,125.4c70.5,82.6,105.3,173.7,106,276.2
		c0,5,0,13.5-0.7,19.9c0.7,6.4-0.7,12.8-2.2,19.2c-8.5,94.6-40.5,183.6-95.4,266.2c-55.5,82.6-123.8,133.9-204.3,153.8
		c54.9,7.2,100.4,44.8,135.2,110.4c35.6,65.5,52.7,141.7,51.3,228.6c0,17-0.7,33.4-2.9,51.2c-2.1,16.4-5,34.2-8.5,53.4
		c-22.8,111.8-86.1,215-188.7,308.2c-104,94-264.1,141-480.5,141H1238.6L1238.6,2362.7z M1665.1,2088.6c2.8,1.4,6.4,2,9.3,2
		c2.1,0,3.5,0,5.6,0c69.8,2.2,128.9-22.7,177.3-72.5c47.7-49.9,79-104.7,92.6-165.2c2.1-7.8,2.8-16.3,4.2-24.9
		c0-8.5,1.5-17.1,1.5-26.4c0.6-52.6-15-99.6-47.1-138.8c-32.7-39.9-84-62.7-158.7-66.2L1665.1,2088.6L1665.1,2088.6z M1793.3,1340.3
		c2.8,1.5,5.7,2.2,8.5,2.2c3.6,0,4.2,0,6.4,0c63.3,0.7,115.3-21.4,156.6-69.8c42-47.7,67.6-99.6,79-155.2c0-8.6,0-15,0.8-20.6
		c1.4-6.4,2.1-12.9,1.4-18.6c0.7-51.2-13.5-96-44.9-134.6c-30.5-39.2-79-58.4-145.2-58.4L1793.3,1340.3L1793.3,1340.3z"/>
	<polyline class="st2" points="6638.8,1495.4 6741,1615.7 6743.4,1615.7 6744.3,1620 6853,1749.3 6862.1,1748.5 6861.3,1758.3 
		6980,1899.3 6982.5,1897.6 6985,1904.3 7113.5,2055.1 7117.7,2055.1 7117.7,2060.1 7257,2225.7 7460.5,2163.9 7466.4,2148.2 
		7477.8,2158.9 7664.9,2100.5 7668.2,2091.4 7677.3,2096.3 7846.3,2045.2 7849.6,2037 7859.5,2041.1 8015.2,1993.3 8018.6,1983.4 
		8026,1990 8170.3,1945.4 8321.1,1581.1 8315.3,1572.1 8326,1569.6 8405.2,1378.5 8400.2,1372.6 8410.9,1371 8495.9,1167.4 
		8491.7,1162.5 8498.3,1160.8 8588.1,946.5 8411.8,841.8 8402.6,842.6 8403.5,836.9 8238.7,741.3 8232.9,741.3 8233.7,737.9 
		8080.4,648.1 8072.1,648.1 8073.8,644.7 7928.7,560.7 7922.2,561.5 7922.9,557.5 7787.8,478.3 7640.2,471.7 7637.8,474.2 
		7631.2,470 7467.1,462.5 7463,463.5 7458.1,460.1 7280.9,450.2 7278.4,454.4 7271,449.4 7076.5,438.7 7074.8,447 7063.3,437.9 
		6853,426.3 6807.7,656.4 6816,662.1 6805.3,665.3 6762.4,880.5 6771.4,889.6 6759.9,892.8 6719.5,1096.5 6728.6,1105.5 
		6716.3,1107.2 6677.5,1300 6684.9,1308.4 6675.9,1313.3 6638.8,1496.2 	"/>
	<g>
		<defs>
			<polygon id="SVGID_1_" points="6578.1,2276.3 8622.9,2276.3 8622.9,305.3 6578.1,305.3 6578.1,2276.3 			"/>
		</defs>
		<defs>
			<polyline id="SVGID_2_" points="6638.8,1495.4 6741,1615.7 6743.4,1615.7 6744.3,1620 6853,1749.3 6862.1,1748.5 6861.3,1758.3 
				6980,1899.3 6982.5,1897.6 6985,1904.3 7113.5,2055.1 7117.7,2055.1 7117.7,2060.1 7257,2225.7 7460.5,2163.9 7466.4,2148.2 
				7477.8,2158.9 7664.9,2100.5 7668.2,2091.4 7677.3,2096.3 7846.3,2045.2 7849.6,2037 7859.5,2041.1 8015.2,1993.3 8018.6,1983.4 
				8026,1990 8170.3,1945.4 8321.1,1581.1 8315.3,1572.1 8326,1569.6 8405.2,1378.5 8400.2,1372.6 8410.9,1371 8495.9,1167.4 
				8491.7,1162.5 8498.3,1160.8 8588.1,946.5 8411.8,841.8 8402.6,842.6 8403.5,836.9 8238.7,741.3 8232.9,741.3 8233.7,737.9 
				8080.4,648.1 8072.1,648.1 8073.8,644.7 7928.7,560.7 7922.2,561.5 7922.9,557.5 7787.8,478.3 7640.2,471.7 7637.8,474.2 
				7631.2,470 7467.1,462.5 7463,463.5 7458.1,460.1 7280.9,450.2 7278.4,454.4 7271,449.4 7076.5,438.7 7074.8,447 7063.3,437.9 
				6853,426.3 6807.7,656.4 6816,662.1 6805.3,665.3 6762.4,880.5 6771.4,889.6 6759.9,892.8 6719.5,1096.5 6728.6,1105.5 
				6716.3,1107.2 6677.5,1300 6684.9,1308.4 6675.9,1313.3 6638.8,1496.2 			"/>
		</defs>
		<clipPath id="SVGID_3_">
			<use xlink:href="#SVGID_1_"  style="overflow:visible;"/>
		</clipPath>
		<clipPath id="SVGID_4_" class="st3">
			<use xlink:href="#SVGID_2_"  style="overflow:visible;"/>
		</clipPath>
		<g style="clip-path:url(#SVGID_4_);">
			
				<image style="overflow:visible;" width="2188" height="2109" xlink:href="B7F095A3.jpg"  transform="matrix(0.9346 0 0 0.9346 6578.064 305.2793)">
			</image>
		</g>
	</g>
</g>
</svg>
